# MagicaVoxel @ Ephtracy

# material
mtllib swordSm.mtl
usemtl palette

# normals
vn -1 0 0
vn 1 0 0
vn 0 0 1
vn 0 0 -1
vn 0 -1 0
vn 0 1 0

# texcoords
vt 0.533203 0.5
vt 0.537109 0.5
vt 0.958984 0.5
vt 0.962891 0.5

# verts
v -8 7 10
v -8 7 8
v -8 8 10
v -8 8 8
v -6 7 11
v -6 7 10
v -6 8 11
v -6 8 10
v -4 6 9
v -4 6 8
v -4 7 9
v -4 7 8
v -4 7 -10
v -4 8 9
v -4 8 8
v -4 8 -10
v -4 9 9
v -4 9 8
v -3 6 10
v -3 6 9
v -3 7 10
v -3 7 9
v -3 7 -10
v -3 7 -12
v -3 8 10
v -3 8 9
v -3 8 -10
v -3 8 -12
v -3 9 10
v -3 9 9
v -2 6 8
v -2 6 -10
v -2 7 22
v -2 7 20
v -2 7 8
v -2 7 -10
v -2 7 -12
v -2 7 -14
v -2 8 22
v -2 8 20
v -2 8 8
v -2 8 -10
v -2 8 -12
v -2 8 -14
v -2 9 8
v -2 9 -10
v -1 6 22
v -1 6 20
v -1 6 -10
v -1 6 -11
v -1 7 23
v -1 7 22
v -1 7 20
v -1 7 11
v -1 7 -10
v -1 7 -11
v -1 7 -14
v -1 7 -16
v -1 8 23
v -1 8 22
v -1 8 20
v -1 8 11
v -1 8 -10
v -1 8 -11
v -1 8 -14
v -1 8 -16
v -1 9 22
v -1 9 20
v -1 9 -10
v -1 9 -11
v 1 6 22
v 1 6 20
v 1 6 -10
v 1 6 -11
v 1 7 23
v 1 7 22
v 1 7 20
v 1 7 11
v 1 7 -10
v 1 7 -11
v 1 7 -14
v 1 7 -16
v 1 8 23
v 1 8 22
v 1 8 20
v 1 8 11
v 1 8 -10
v 1 8 -11
v 1 8 -14
v 1 8 -16
v 1 9 22
v 1 9 20
v 1 9 -10
v 1 9 -11
v 2 6 8
v 2 6 -10
v 2 7 22
v 2 7 20
v 2 7 8
v 2 7 -10
v 2 7 -12
v 2 7 -14
v 2 8 22
v 2 8 20
v 2 8 8
v 2 8 -10
v 2 8 -12
v 2 8 -14
v 2 9 8
v 2 9 -10
v 3 6 10
v 3 6 9
v 3 7 10
v 3 7 9
v 3 7 -10
v 3 7 -12
v 3 8 10
v 3 8 9
v 3 8 -10
v 3 8 -12
v 3 9 10
v 3 9 9
v 4 6 9
v 4 6 8
v 4 7 9
v 4 7 8
v 4 7 -10
v 4 8 9
v 4 8 8
v 4 8 -10
v 4 9 9
v 4 9 8
v 6 7 11
v 6 7 10
v 6 8 11
v 6 8 10
v 8 7 10
v 8 7 8
v 8 8 10
v 8 8 8
v -1 7 23
v -1 8 23
v 1 7 23
v 1 8 23
v -2 7 22
v -2 8 22
v -1 6 22
v -1 7 22
v -1 8 22
v -1 9 22
v 1 6 22
v 1 7 22
v 1 8 22
v 1 9 22
v 2 7 22
v 2 8 22
v -6 7 11
v -6 8 11
v -2 7 11
v -2 8 11
v -1 7 11
v -1 8 11
v 1 7 11
v 1 8 11
v 2 7 11
v 2 8 11
v 6 7 11
v 6 8 11
v -8 7 10
v -8 8 10
v -6 7 10
v -6 8 10
v -3 6 10
v -3 7 10
v -3 8 10
v -3 9 10
v -2 7 10
v -2 8 10
v 2 7 10
v 2 8 10
v 3 6 10
v 3 7 10
v 3 8 10
v 3 9 10
v 6 7 10
v 6 8 10
v 8 7 10
v 8 8 10
v -4 6 9
v -4 7 9
v -4 8 9
v -4 9 9
v -3 6 9
v -3 7 9
v -3 8 9
v -3 9 9
v 3 6 9
v 3 7 9
v 3 8 9
v 3 9 9
v 4 6 9
v 4 7 9
v 4 8 9
v 4 9 9
v -2 7 20
v -2 8 20
v -1 6 20
v -1 7 20
v -1 8 20
v -1 9 20
v 1 6 20
v 1 7 20
v 1 8 20
v 1 9 20
v 2 7 20
v 2 8 20
v -8 7 8
v -8 8 8
v -4 6 8
v -4 7 8
v -4 8 8
v -4 9 8
v -2 6 8
v -2 7 8
v -2 8 8
v -2 9 8
v 2 6 8
v 2 7 8
v 2 8 8
v 2 9 8
v 4 6 8
v 4 7 8
v 4 8 8
v 4 9 8
v 8 7 8
v 8 8 8
v -4 7 -10
v -4 8 -10
v -3 7 -10
v -3 8 -10
v -2 6 -10
v -2 7 -10
v -2 8 -10
v -2 9 -10
v -1 6 -10
v -1 7 -10
v -1 8 -10
v -1 9 -10
v 1 6 -10
v 1 7 -10
v 1 8 -10
v 1 9 -10
v 2 6 -10
v 2 7 -10
v 2 8 -10
v 2 9 -10
v 3 7 -10
v 3 8 -10
v 4 7 -10
v 4 8 -10
v -1 6 -11
v -1 7 -11
v -1 8 -11
v -1 9 -11
v 0 6 -11
v 0 7 -11
v 0 8 -11
v 0 9 -11
v 1 6 -11
v 1 7 -11
v 1 8 -11
v 1 9 -11
v -3 7 -12
v -3 8 -12
v -2 7 -12
v -2 8 -12
v 2 7 -12
v 2 8 -12
v 3 7 -12
v 3 8 -12
v -2 7 -14
v -2 8 -14
v -1 7 -14
v -1 8 -14
v 1 7 -14
v 1 8 -14
v 2 7 -14
v 2 8 -14
v -1 7 -16
v -1 8 -16
v 0 7 -16
v 0 8 -16
v 1 7 -16
v 1 8 -16
v -1 6 22
v 1 6 22
v -1 6 20
v 1 6 20
v -3 6 10
v 3 6 10
v -4 6 9
v -3 6 9
v 3 6 9
v 4 6 9
v -4 6 8
v -2 6 8
v 0 6 8
v 2 6 8
v 4 6 8
v -2 6 -10
v -1 6 -10
v 1 6 -10
v 2 6 -10
v -1 6 -11
v 0 6 -11
v 1 6 -11
v -1 7 23
v 1 7 23
v -2 7 22
v -1 7 22
v 1 7 22
v 2 7 22
v -2 7 20
v -1 7 20
v 1 7 20
v 2 7 20
v -6 7 11
v -2 7 11
v -1 7 11
v 1 7 11
v 2 7 11
v 6 7 11
v -8 7 10
v -6 7 10
v -3 7 10
v -2 7 10
v 2 7 10
v 3 7 10
v 6 7 10
v 8 7 10
v -4 7 9
v -3 7 9
v 3 7 9
v 4 7 9
v -8 7 8
v -4 7 8
v -2 7 8
v 2 7 8
v 4 7 8
v 8 7 8
v -4 7 -10
v -3 7 -10
v -2 7 -10
v -1 7 -10
v 1 7 -10
v 2 7 -10
v 3 7 -10
v 4 7 -10
v -1 7 -11
v 0 7 -11
v 1 7 -11
v -3 7 -12
v -2 7 -12
v 2 7 -12
v 3 7 -12
v -2 7 -14
v -1 7 -14
v 1 7 -14
v 2 7 -14
v -1 7 -16
v 0 7 -16
v 1 7 -16
v -1 8 23
v 1 8 23
v -2 8 22
v -1 8 22
v 1 8 22
v 2 8 22
v -2 8 20
v -1 8 20
v 1 8 20
v 2 8 20
v -6 8 11
v -2 8 11
v -1 8 11
v 1 8 11
v 2 8 11
v 6 8 11
v -8 8 10
v -6 8 10
v -3 8 10
v -2 8 10
v 2 8 10
v 3 8 10
v 6 8 10
v 8 8 10
v -4 8 9
v -3 8 9
v 3 8 9
v 4 8 9
v -8 8 8
v -4 8 8
v -2 8 8
v 2 8 8
v 4 8 8
v 8 8 8
v -4 8 -10
v -3 8 -10
v -2 8 -10
v -1 8 -10
v 1 8 -10
v 2 8 -10
v 3 8 -10
v 4 8 -10
v -1 8 -11
v 0 8 -11
v 1 8 -11
v -3 8 -12
v -2 8 -12
v 2 8 -12
v 3 8 -12
v -2 8 -14
v -1 8 -14
v 1 8 -14
v 2 8 -14
v -1 8 -16
v 0 8 -16
v 1 8 -16
v -1 9 22
v 1 9 22
v -1 9 20
v 1 9 20
v -3 9 10
v 3 9 10
v -4 9 9
v -3 9 9
v 3 9 9
v 4 9 9
v -4 9 8
v -2 9 8
v 0 9 8
v 2 9 8
v 4 9 8
v -2 9 -10
v -1 9 -10
v 1 9 -10
v 2 9 -10
v -1 9 -11
v 0 9 -11
v 1 9 -11

# faces
f 3/1/1 2/1/1 1/1/1
f 4/1/1 2/1/1 3/1/1
f 7/1/1 6/1/1 5/1/1
f 8/1/1 6/1/1 7/1/1
f 11/2/1 10/2/1 9/2/1
f 12/2/1 10/2/1 11/2/1
f 15/4/1 13/4/1 12/4/1
f 16/4/1 13/4/1 15/4/1
f 17/2/1 15/2/1 14/2/1
f 18/2/1 15/2/1 17/2/1
f 21/2/1 20/2/1 19/2/1
f 22/2/1 20/2/1 21/2/1
f 27/4/1 24/4/1 23/4/1
f 28/4/1 24/4/1 27/4/1
f 29/2/1 26/2/1 25/2/1
f 30/2/1 26/2/1 29/2/1
f 35/4/1 32/4/1 31/4/1
f 36/4/1 32/4/1 35/4/1
f 39/1/1 34/1/1 33/1/1
f 40/1/1 34/1/1 39/1/1
f 43/4/1 38/4/1 37/4/1
f 44/4/1 38/4/1 43/4/1
f 45/4/1 42/4/1 41/4/1
f 46/4/1 42/4/1 45/4/1
f 52/1/1 48/1/1 47/1/1
f 53/1/1 48/1/1 52/1/1
f 55/4/1 50/4/1 49/4/1
f 56/4/1 50/4/1 55/4/1
f 59/1/1 52/1/1 51/1/1
f 60/1/1 52/1/1 59/1/1
f 61/2/1 54/2/1 53/2/1
f 62/2/1 54/2/1 61/2/1
f 65/4/1 58/4/1 57/4/1
f 66/4/1 58/4/1 65/4/1
f 67/1/1 61/1/1 60/1/1
f 68/1/1 61/1/1 67/1/1
f 69/4/1 64/4/1 63/4/1
f 70/4/1 64/4/1 69/4/1
f 71/1/2 72/1/2 76/1/2
f 76/1/2 72/1/2 77/1/2
f 73/3/2 74/3/2 79/3/2
f 79/3/2 74/3/2 80/3/2
f 75/1/2 76/1/2 83/1/2
f 83/1/2 76/1/2 84/1/2
f 77/2/2 78/2/2 85/2/2
f 85/2/2 78/2/2 86/2/2
f 81/3/2 82/3/2 89/3/2
f 89/3/2 82/3/2 90/3/2
f 84/1/2 85/1/2 91/1/2
f 91/1/2 85/1/2 92/1/2
f 87/3/2 88/3/2 93/3/2
f 93/3/2 88/3/2 94/3/2
f 95/3/2 96/3/2 99/3/2
f 99/3/2 96/3/2 100/3/2
f 97/1/2 98/1/2 103/1/2
f 103/1/2 98/1/2 104/1/2
f 101/3/2 102/3/2 107/3/2
f 107/3/2 102/3/2 108/3/2
f 105/3/2 106/3/2 109/3/2
f 109/3/2 106/3/2 110/3/2
f 111/2/2 112/2/2 113/2/2
f 113/2/2 112/2/2 114/2/2
f 115/3/2 116/3/2 119/3/2
f 119/3/2 116/3/2 120/3/2
f 117/2/2 118/2/2 121/2/2
f 121/2/2 118/2/2 122/2/2
f 123/2/2 124/2/2 125/2/2
f 125/2/2 124/2/2 126/2/2
f 126/3/2 127/3/2 129/3/2
f 129/3/2 127/3/2 130/3/2
f 128/2/2 129/2/2 131/2/2
f 131/2/2 129/2/2 132/2/2
f 133/1/2 134/1/2 135/1/2
f 135/1/2 134/1/2 136/1/2
f 137/1/2 138/1/2 139/1/2
f 139/1/2 138/1/2 140/1/2
f 143/1/3 142/1/3 141/1/3
f 144/1/3 142/1/3 143/1/3
f 148/1/3 146/1/3 145/1/3
f 149/1/3 146/1/3 148/1/3
f 151/1/3 148/1/3 147/1/3
f 152/1/3 148/1/3 151/1/3
f 153/1/3 150/1/3 149/1/3
f 154/1/3 150/1/3 153/1/3
f 155/1/3 153/1/3 152/1/3
f 156/1/3 153/1/3 155/1/3
f 159/1/3 158/1/3 157/1/3
f 160/1/3 158/1/3 159/1/3
f 161/2/3 160/2/3 159/2/3
f 162/2/3 160/2/3 161/2/3
f 165/2/3 164/2/3 163/2/3
f 166/2/3 164/2/3 165/2/3
f 167/1/3 166/1/3 165/1/3
f 168/1/3 166/1/3 167/1/3
f 171/1/3 170/1/3 169/1/3
f 172/1/3 170/1/3 171/1/3
f 177/2/3 174/2/3 173/2/3
f 178/2/3 176/2/3 175/2/3
f 179/2/3 177/2/3 173/2/3
f 180/2/3 176/2/3 178/2/3
f 181/2/3 179/2/3 173/2/3
f 182/2/3 179/2/3 181/2/3
f 183/2/3 176/2/3 180/2/3
f 184/2/3 176/2/3 183/2/3
f 187/1/3 186/1/3 185/1/3
f 188/1/3 186/1/3 187/1/3
f 193/2/3 190/2/3 189/2/3
f 194/2/3 190/2/3 193/2/3
f 195/2/3 192/2/3 191/2/3
f 196/2/3 192/2/3 195/2/3
f 201/2/3 198/2/3 197/2/3
f 202/2/3 198/2/3 201/2/3
f 203/2/3 200/2/3 199/2/3
f 204/2/3 200/2/3 203/2/3
f 205/1/4 206/1/4 208/1/4
f 208/1/4 206/1/4 209/1/4
f 207/1/4 208/1/4 211/1/4
f 211/1/4 208/1/4 212/1/4
f 209/1/4 210/1/4 213/1/4
f 213/1/4 210/1/4 214/1/4
f 212/1/4 213/1/4 215/1/4
f 215/1/4 213/1/4 216/1/4
f 217/1/4 218/1/4 220/1/4
f 220/1/4 218/1/4 221/1/4
f 219/2/4 220/2/4 223/2/4
f 223/2/4 220/2/4 224/2/4
f 221/2/4 222/2/4 225/2/4
f 225/2/4 222/2/4 226/2/4
f 227/2/4 228/2/4 231/2/4
f 231/2/4 228/2/4 232/2/4
f 229/2/4 230/2/4 233/2/4
f 233/2/4 230/2/4 234/2/4
f 232/1/4 233/1/4 235/1/4
f 235/1/4 233/1/4 236/1/4
f 237/4/4 238/4/4 239/4/4
f 239/4/4 238/4/4 240/4/4
f 241/4/4 242/4/4 245/4/4
f 245/4/4 242/4/4 246/4/4
f 243/4/4 244/4/4 247/4/4
f 247/4/4 244/4/4 248/4/4
f 249/3/4 250/3/4 253/3/4
f 253/3/4 250/3/4 254/3/4
f 251/3/4 252/3/4 255/3/4
f 255/3/4 252/3/4 256/3/4
f 257/3/4 258/3/4 259/3/4
f 259/3/4 258/3/4 260/3/4
f 261/4/4 262/4/4 265/4/4
f 265/4/4 262/4/4 266/4/4
f 263/4/4 264/4/4 267/4/4
f 267/4/4 264/4/4 268/4/4
f 265/3/4 266/3/4 269/3/4
f 269/3/4 266/3/4 270/3/4
f 267/3/4 268/3/4 271/3/4
f 271/3/4 268/3/4 272/3/4
f 273/4/4 274/4/4 275/4/4
f 275/4/4 274/4/4 276/4/4
f 277/3/4 278/3/4 279/3/4
f 279/3/4 278/3/4 280/3/4
f 281/4/4 282/4/4 283/4/4
f 283/4/4 282/4/4 284/4/4
f 285/3/4 286/3/4 287/3/4
f 287/3/4 286/3/4 288/3/4
f 289/4/4 290/4/4 291/4/4
f 291/4/4 290/4/4 292/4/4
f 291/3/4 292/3/4 293/3/4
f 293/3/4 292/3/4 294/3/4
f 297/1/5 296/1/5 295/1/5
f 298/1/5 296/1/5 297/1/5
f 302/2/5 300/2/5 299/2/5
f 303/2/5 300/2/5 302/2/5
f 305/2/5 302/2/5 301/2/5
f 305/2/5 304/2/5 303/2/5
f 305/2/5 303/2/5 302/2/5
f 306/2/5 304/2/5 305/2/5
f 307/2/5 304/2/5 306/2/5
f 308/2/5 304/2/5 307/2/5
f 309/2/5 304/2/5 308/2/5
f 310/4/5 307/4/5 306/4/5
f 311/4/5 307/4/5 310/4/5
f 312/3/5 308/3/5 307/3/5
f 313/3/5 308/3/5 312/3/5
f 314/4/5 307/4/5 311/4/5
f 315/3/5 312/3/5 307/3/5
f 315/4/5 307/4/5 314/4/5
f 316/3/5 312/3/5 315/3/5
f 320/1/5 318/1/5 317/1/5
f 321/1/5 318/1/5 320/1/5
f 323/1/5 320/1/5 319/1/5
f 324/1/5 320/1/5 323/1/5
f 325/1/5 322/1/5 321/1/5
f 326/1/5 322/1/5 325/1/5
f 329/2/5 325/2/5 324/2/5
f 330/2/5 325/2/5 329/2/5
f 334/1/5 328/1/5 327/1/5
f 335/1/5 328/1/5 334/1/5
f 336/2/5 331/2/5 330/2/5
f 336/1/5 328/1/5 335/1/5
f 336/2/5 329/2/5 328/2/5
f 336/2/5 330/2/5 329/2/5
f 337/1/5 332/1/5 331/1/5
f 337/2/5 331/2/5 336/2/5
f 338/1/5 332/1/5 337/1/5
f 339/1/5 332/1/5 338/1/5
f 341/1/5 335/1/5 334/1/5
f 341/1/5 334/1/5 333/1/5
f 342/1/5 335/1/5 341/1/5
f 343/1/5 340/1/5 339/1/5
f 343/1/5 339/1/5 338/1/5
f 344/1/5 340/1/5 343/1/5
f 345/1/5 341/1/5 333/1/5
f 346/1/5 341/1/5 345/1/5
f 349/1/5 340/1/5 344/1/5
f 350/1/5 340/1/5 349/1/5
f 351/4/5 347/4/5 346/4/5
f 352/4/5 347/4/5 351/4/5
f 353/4/5 347/4/5 352/4/5
f 356/3/5 349/3/5 348/3/5
f 357/3/5 349/3/5 356/3/5
f 358/3/5 349/3/5 357/3/5
f 359/4/5 354/4/5 353/4/5
f 359/4/5 353/4/5 352/4/5
f 361/3/5 357/3/5 356/3/5
f 361/3/5 356/3/5 355/3/5
f 362/4/5 360/4/5 359/4/5
f 362/4/5 359/4/5 352/4/5
f 363/4/5 360/4/5 362/4/5
f 364/3/5 361/3/5 360/3/5
f 364/3/5 357/3/5 361/3/5
f 365/3/5 357/3/5 364/3/5
f 366/4/5 360/4/5 363/4/5
f 367/4/5 360/4/5 366/4/5
f 368/3/5 364/3/5 360/3/5
f 369/3/5 364/3/5 368/3/5
f 370/4/5 360/4/5 367/4/5
f 371/3/5 368/3/5 360/3/5
f 371/4/5 360/4/5 370/4/5
f 372/3/5 368/3/5 371/3/5
f 373/1/6 374/1/6 376/1/6
f 376/1/6 374/1/6 377/1/6
f 375/1/6 376/1/6 379/1/6
f 379/1/6 376/1/6 380/1/6
f 377/1/6 378/1/6 381/1/6
f 381/1/6 378/1/6 382/1/6
f 380/2/6 381/2/6 385/2/6
f 385/2/6 381/2/6 386/2/6
f 383/1/6 384/1/6 390/1/6
f 390/1/6 384/1/6 391/1/6
f 386/2/6 387/2/6 392/2/6
f 391/1/6 384/1/6 392/1/6
f 384/2/6 385/2/6 392/2/6
f 385/2/6 386/2/6 392/2/6
f 387/1/6 388/1/6 393/1/6
f 392/2/6 387/2/6 393/2/6
f 393/1/6 388/1/6 394/1/6
f 394/1/6 388/1/6 395/1/6
f 390/1/6 391/1/6 397/1/6
f 389/1/6 390/1/6 397/1/6
f 397/1/6 391/1/6 398/1/6
f 395/1/6 396/1/6 399/1/6
f 394/1/6 395/1/6 399/1/6
f 399/1/6 396/1/6 400/1/6
f 389/1/6 397/1/6 401/1/6
f 401/1/6 397/1/6 402/1/6
f 400/1/6 396/1/6 405/1/6
f 405/1/6 396/1/6 406/1/6
f 402/4/6 403/4/6 407/4/6
f 407/4/6 403/4/6 408/4/6
f 408/4/6 403/4/6 409/4/6
f 404/3/6 405/3/6 412/3/6
f 412/3/6 405/3/6 413/3/6
f 413/3/6 405/3/6 414/3/6
f 409/4/6 410/4/6 415/4/6
f 408/4/6 409/4/6 415/4/6
f 412/3/6 413/3/6 417/3/6
f 411/3/6 412/3/6 417/3/6
f 415/4/6 416/4/6 418/4/6
f 408/4/6 415/4/6 418/4/6
f 418/4/6 416/4/6 419/4/6
f 416/3/6 417/3/6 420/3/6
f 417/3/6 413/3/6 420/3/6
f 420/3/6 413/3/6 421/3/6
f 419/4/6 416/4/6 422/4/6
f 422/4/6 416/4/6 423/4/6
f 416/3/6 420/3/6 424/3/6
f 424/3/6 420/3/6 425/3/6
f 423/4/6 416/4/6 426/4/6
f 416/3/6 424/3/6 427/3/6
f 426/4/6 416/4/6 427/4/6
f 427/3/6 424/3/6 428/3/6
f 429/1/6 430/1/6 431/1/6
f 431/1/6 430/1/6 432/1/6
f 433/2/6 434/2/6 436/2/6
f 436/2/6 434/2/6 437/2/6
f 435/2/6 436/2/6 439/2/6
f 437/2/6 438/2/6 439/2/6
f 436/2/6 437/2/6 439/2/6
f 439/2/6 438/2/6 440/2/6
f 440/2/6 438/2/6 441/2/6
f 441/2/6 438/2/6 442/2/6
f 442/2/6 438/2/6 443/2/6
f 440/4/6 441/4/6 444/4/6
f 444/4/6 441/4/6 445/4/6
f 441/3/6 442/3/6 446/3/6
f 446/3/6 442/3/6 447/3/6
f 445/4/6 441/4/6 448/4/6
f 441/3/6 446/3/6 449/3/6
f 448/4/6 441/4/6 449/4/6
f 449/3/6 446/3/6 450/3/6
