# MagicaVoxel @ Ephtracy

# material
mtllib sword.mtl
usemtl palette

# normals
vn -1 0 0
vn 1 0 0
vn 0 0 1
vn 0 0 -1
vn 0 -1 0
vn 0 1 0

# texcoords
vt 0.669922 0.5
vt 0.951172 0.5
vt 0.958984 0.5
vt 0.962891 0.5

# verts
v -6 5 10
v -6 5 8
v -6 8 10
v -6 8 8
v -5 4 10
v -5 4 8
v -5 5 10
v -5 5 8
v -5 8 10
v -5 8 8
v -5 9 10
v -5 9 8
v -4 3 10
v -4 3 8
v -4 4 10
v -4 4 8
v -4 6 8
v -4 6 6
v -4 7 8
v -4 7 6
v -4 9 10
v -4 9 8
v -4 10 10
v -4 10 8
v -3 6 6
v -3 6 -14
v -3 7 6
v -3 7 -14
v -2 5 8
v -2 5 -13
v -2 6 16
v -2 6 14
v -2 6 8
v -2 6 -13
v -2 6 -14
v -2 6 -15
v -2 7 16
v -2 7 14
v -2 7 8
v -2 7 -13
v -2 7 -14
v -2 7 -15
v -2 8 8
v -2 8 -13
v -1 5 16
v -1 5 14
v -1 5 -13
v -1 5 -14
v -1 6 16
v -1 6 14
v -1 6 10
v -1 6 -13
v -1 6 -14
v -1 6 -15
v -1 6 -16
v -1 7 16
v -1 7 14
v -1 7 10
v -1 7 -13
v -1 7 -14
v -1 7 -15
v -1 7 -16
v -1 8 16
v -1 8 14
v -1 8 -13
v -1 8 -14
v 1 5 16
v 1 5 14
v 1 5 -13
v 1 5 -14
v 1 6 16
v 1 6 14
v 1 6 10
v 1 6 -13
v 1 6 -14
v 1 6 -15
v 1 6 -16
v 1 7 16
v 1 7 14
v 1 7 10
v 1 7 -13
v 1 7 -14
v 1 7 -15
v 1 7 -16
v 1 8 16
v 1 8 14
v 1 8 -13
v 1 8 -14
v 2 5 8
v 2 5 -13
v 2 6 16
v 2 6 14
v 2 6 8
v 2 6 -13
v 2 6 -14
v 2 6 -15
v 2 7 16
v 2 7 14
v 2 7 8
v 2 7 -13
v 2 7 -14
v 2 7 -15
v 2 8 8
v 2 8 -13
v 3 6 6
v 3 6 -14
v 3 7 6
v 3 7 -14
v 4 3 10
v 4 3 8
v 4 4 10
v 4 4 8
v 4 6 8
v 4 6 6
v 4 7 8
v 4 7 6
v 4 9 10
v 4 9 8
v 4 10 10
v 4 10 8
v 5 4 10
v 5 4 8
v 5 5 10
v 5 5 8
v 5 8 10
v 5 8 8
v 5 9 10
v 5 9 8
v 6 5 10
v 6 5 8
v 6 8 10
v 6 8 8
v -2 6 16
v -2 7 16
v -1 5 16
v -1 6 16
v -1 7 16
v -1 8 16
v 1 5 16
v 1 6 16
v 1 7 16
v 1 8 16
v 2 6 16
v 2 7 16
v -6 5 10
v -6 8 10
v -5 4 10
v -5 5 10
v -5 8 10
v -5 9 10
v -4 3 10
v -4 4 10
v -4 9 10
v -4 10 10
v -1 6 10
v -1 7 10
v 1 6 10
v 1 7 10
v 4 3 10
v 4 4 10
v 4 9 10
v 4 10 10
v 5 4 10
v 5 5 10
v 5 8 10
v 5 9 10
v 6 5 10
v 6 8 10
v -2 6 14
v -2 7 14
v -1 5 14
v -1 6 14
v -1 7 14
v -1 8 14
v 1 5 14
v 1 6 14
v 1 7 14
v 1 8 14
v 2 6 14
v 2 7 14
v -6 5 8
v -6 8 8
v -5 4 8
v -5 5 8
v -5 8 8
v -5 9 8
v -4 3 8
v -4 4 8
v -4 6 8
v -4 7 8
v -4 9 8
v -4 10 8
v -2 5 8
v -2 6 8
v -2 7 8
v -2 8 8
v 0 5 8
v 0 8 8
v 2 5 8
v 2 6 8
v 2 7 8
v 2 8 8
v 4 3 8
v 4 4 8
v 4 6 8
v 4 7 8
v 4 9 8
v 4 10 8
v 5 4 8
v 5 5 8
v 5 8 8
v 5 9 8
v 6 5 8
v 6 8 8
v -4 6 6
v -4 7 6
v -3 6 6
v -3 7 6
v 3 6 6
v 3 7 6
v 4 6 6
v 4 7 6
v -2 5 -13
v -2 6 -13
v -2 7 -13
v -2 8 -13
v -1 5 -13
v -1 6 -13
v -1 7 -13
v -1 8 -13
v 1 5 -13
v 1 6 -13
v 1 7 -13
v 1 8 -13
v 2 5 -13
v 2 6 -13
v 2 7 -13
v 2 8 -13
v -3 6 -14
v -3 7 -14
v -2 6 -14
v -2 7 -14
v -1 5 -14
v -1 6 -14
v -1 7 -14
v -1 8 -14
v 0 5 -14
v 0 6 -14
v 0 7 -14
v 0 8 -14
v 1 5 -14
v 1 6 -14
v 1 7 -14
v 1 8 -14
v 2 6 -14
v 2 7 -14
v 3 6 -14
v 3 7 -14
v -2 6 -15
v -2 7 -15
v -1 6 -15
v -1 7 -15
v 1 6 -15
v 1 7 -15
v 2 6 -15
v 2 7 -15
v -1 6 -16
v -1 7 -16
v 0 6 -16
v 0 7 -16
v 1 6 -16
v 1 7 -16
v -4 3 10
v 4 3 10
v -4 3 8
v 4 3 8
v -5 4 10
v -4 4 10
v 4 4 10
v 5 4 10
v -5 4 8
v -4 4 8
v 4 4 8
v 5 4 8
v -1 5 16
v 1 5 16
v -1 5 14
v 1 5 14
v -6 5 10
v -5 5 10
v 5 5 10
v 6 5 10
v -6 5 8
v -5 5 8
v -2 5 8
v 0 5 8
v 2 5 8
v 5 5 8
v 6 5 8
v -2 5 -13
v -1 5 -13
v 1 5 -13
v 2 5 -13
v -1 5 -14
v 0 5 -14
v 1 5 -14
v -2 6 16
v -1 6 16
v 1 6 16
v 2 6 16
v -2 6 14
v -1 6 14
v 1 6 14
v 2 6 14
v -1 6 10
v 1 6 10
v -4 6 8
v -2 6 8
v 2 6 8
v 4 6 8
v -4 6 6
v -3 6 6
v 3 6 6
v 4 6 6
v -2 6 -13
v -1 6 -13
v 1 6 -13
v 2 6 -13
v -3 6 -14
v -2 6 -14
v -1 6 -14
v 0 6 -14
v 1 6 -14
v 2 6 -14
v 3 6 -14
v -2 6 -15
v -1 6 -15
v 1 6 -15
v 2 6 -15
v -1 6 -16
v 0 6 -16
v 1 6 -16
v -2 7 16
v -1 7 16
v 1 7 16
v 2 7 16
v -2 7 14
v -1 7 14
v 1 7 14
v 2 7 14
v -1 7 10
v 1 7 10
v -4 7 8
v -2 7 8
v 2 7 8
v 4 7 8
v -4 7 6
v -3 7 6
v 3 7 6
v 4 7 6
v -2 7 -13
v -1 7 -13
v 1 7 -13
v 2 7 -13
v -3 7 -14
v -2 7 -14
v -1 7 -14
v 0 7 -14
v 1 7 -14
v 2 7 -14
v 3 7 -14
v -2 7 -15
v -1 7 -15
v 1 7 -15
v 2 7 -15
v -1 7 -16
v 0 7 -16
v 1 7 -16
v -1 8 16
v 1 8 16
v -1 8 14
v 1 8 14
v -6 8 10
v -5 8 10
v 5 8 10
v 6 8 10
v -6 8 8
v -5 8 8
v -2 8 8
v 0 8 8
v 2 8 8
v 5 8 8
v 6 8 8
v -2 8 -13
v -1 8 -13
v 1 8 -13
v 2 8 -13
v -1 8 -14
v 0 8 -14
v 1 8 -14
v -5 9 10
v -4 9 10
v 4 9 10
v 5 9 10
v -5 9 8
v -4 9 8
v 4 9 8
v 5 9 8
v -4 10 10
v 4 10 10
v -4 10 8
v 4 10 8

# faces
f 3/1/1 2/1/1 1/1/1
f 4/1/1 2/1/1 3/1/1
f 7/1/1 6/1/1 5/1/1
f 8/1/1 6/1/1 7/1/1
f 11/1/1 10/1/1 9/1/1
f 12/1/1 10/1/1 11/1/1
f 15/1/1 14/1/1 13/1/1
f 16/1/1 14/1/1 15/1/1
f 19/4/1 18/4/1 17/4/1
f 20/4/1 18/4/1 19/4/1
f 23/1/1 22/1/1 21/1/1
f 24/1/1 22/1/1 23/1/1
f 27/4/1 26/4/1 25/4/1
f 28/4/1 26/4/1 27/4/1
f 33/4/1 30/4/1 29/4/1
f 34/4/1 30/4/1 33/4/1
f 37/1/1 32/1/1 31/1/1
f 38/1/1 32/1/1 37/1/1
f 41/4/1 36/4/1 35/4/1
f 42/4/1 36/4/1 41/4/1
f 43/4/1 40/4/1 39/4/1
f 44/4/1 40/4/1 43/4/1
f 49/1/1 46/1/1 45/1/1
f 50/1/1 46/1/1 49/1/1
f 52/4/1 48/4/1 47/4/1
f 53/4/1 48/4/1 52/4/1
f 57/2/1 51/2/1 50/2/1
f 58/2/1 51/2/1 57/2/1
f 61/4/1 55/4/1 54/4/1
f 62/4/1 55/4/1 61/4/1
f 63/1/1 57/1/1 56/1/1
f 64/1/1 57/1/1 63/1/1
f 65/4/1 60/4/1 59/4/1
f 66/4/1 60/4/1 65/4/1
f 67/1/2 68/1/2 71/1/2
f 71/1/2 68/1/2 72/1/2
f 69/3/2 70/3/2 74/3/2
f 74/3/2 70/3/2 75/3/2
f 72/2/2 73/2/2 79/2/2
f 79/2/2 73/2/2 80/2/2
f 76/3/2 77/3/2 83/3/2
f 83/3/2 77/3/2 84/3/2
f 78/1/2 79/1/2 85/1/2
f 85/1/2 79/1/2 86/1/2
f 81/3/2 82/3/2 87/3/2
f 87/3/2 82/3/2 88/3/2
f 89/3/2 90/3/2 93/3/2
f 93/3/2 90/3/2 94/3/2
f 91/1/2 92/1/2 97/1/2
f 97/1/2 92/1/2 98/1/2
f 95/3/2 96/3/2 101/3/2
f 101/3/2 96/3/2 102/3/2
f 99/3/2 100/3/2 103/3/2
f 103/3/2 100/3/2 104/3/2
f 105/3/2 106/3/2 107/3/2
f 107/3/2 106/3/2 108/3/2
f 109/1/2 110/1/2 111/1/2
f 111/1/2 110/1/2 112/1/2
f 113/3/2 114/3/2 115/3/2
f 115/3/2 114/3/2 116/3/2
f 117/1/2 118/1/2 119/1/2
f 119/1/2 118/1/2 120/1/2
f 121/1/2 122/1/2 123/1/2
f 123/1/2 122/1/2 124/1/2
f 125/1/2 126/1/2 127/1/2
f 127/1/2 126/1/2 128/1/2
f 129/1/2 130/1/2 131/1/2
f 131/1/2 130/1/2 132/1/2
f 136/1/3 134/1/3 133/1/3
f 137/1/3 134/1/3 136/1/3
f 139/1/3 136/1/3 135/1/3
f 139/1/3 138/1/3 137/1/3
f 139/1/3 137/1/3 136/1/3
f 140/1/3 138/1/3 139/1/3
f 141/1/3 138/1/3 140/1/3
f 142/1/3 138/1/3 141/1/3
f 143/1/3 141/1/3 140/1/3
f 144/1/3 141/1/3 143/1/3
f 148/1/3 146/1/3 145/1/3
f 149/1/3 146/1/3 148/1/3
f 152/1/3 148/1/3 147/1/3
f 152/1/3 150/1/3 149/1/3
f 152/1/3 149/1/3 148/1/3
f 153/1/3 150/1/3 152/1/3
f 155/1/3 152/1/3 151/1/3
f 155/1/3 154/1/3 153/1/3
f 155/1/3 153/1/3 152/1/3
f 156/1/3 154/1/3 155/1/3
f 157/1/3 155/1/3 151/1/3
f 158/1/3 154/1/3 156/1/3
f 159/1/3 157/1/3 151/1/3
f 159/1/3 158/1/3 157/1/3
f 160/1/3 158/1/3 159/1/3
f 161/1/3 154/1/3 158/1/3
f 161/1/3 158/1/3 160/1/3
f 162/1/3 154/1/3 161/1/3
f 163/1/3 161/1/3 160/1/3
f 164/1/3 161/1/3 163/1/3
f 165/1/3 161/1/3 164/1/3
f 166/1/3 161/1/3 165/1/3
f 167/1/3 165/1/3 164/1/3
f 168/1/3 165/1/3 167/1/3
f 169/1/4 170/1/4 172/1/4
f 172/1/4 170/1/4 173/1/4
f 171/1/4 172/1/4 175/1/4
f 175/1/4 172/1/4 176/1/4
f 173/1/4 174/1/4 177/1/4
f 177/1/4 174/1/4 178/1/4
f 176/1/4 177/1/4 179/1/4
f 179/1/4 177/1/4 180/1/4
f 181/1/4 182/1/4 184/1/4
f 184/1/4 182/1/4 185/1/4
f 183/1/4 184/1/4 188/1/4
f 185/1/4 186/1/4 188/1/4
f 184/1/4 185/1/4 188/1/4
f 188/1/4 186/1/4 189/1/4
f 189/1/4 186/1/4 190/1/4
f 190/1/4 186/1/4 191/1/4
f 187/1/4 188/1/4 193/1/4
f 188/1/4 189/1/4 193/1/4
f 193/1/4 189/1/4 194/1/4
f 191/1/4 192/1/4 195/1/4
f 190/1/4 191/1/4 195/1/4
f 195/1/4 192/1/4 196/1/4
f 187/1/4 193/1/4 197/1/4
f 196/1/4 192/1/4 198/1/4
f 187/1/4 197/1/4 199/1/4
f 198/1/4 192/1/4 202/1/4
f 199/1/4 200/1/4 203/1/4
f 187/1/4 199/1/4 203/1/4
f 203/1/4 200/1/4 204/1/4
f 204/1/4 200/1/4 205/1/4
f 201/1/4 202/1/4 206/1/4
f 202/1/4 192/1/4 207/1/4
f 206/1/4 202/1/4 207/1/4
f 207/1/4 192/1/4 208/1/4
f 204/1/4 205/1/4 209/1/4
f 205/1/4 206/1/4 209/1/4
f 206/1/4 207/1/4 209/1/4
f 209/1/4 207/1/4 210/1/4
f 210/1/4 207/1/4 211/1/4
f 211/1/4 207/1/4 212/1/4
f 210/1/4 211/1/4 213/1/4
f 213/1/4 211/1/4 214/1/4
f 215/4/4 216/4/4 217/4/4
f 217/4/4 216/4/4 218/4/4
f 219/3/4 220/3/4 221/3/4
f 221/3/4 220/3/4 222/3/4
f 223/4/4 224/4/4 227/4/4
f 227/4/4 224/4/4 228/4/4
f 225/4/4 226/4/4 229/4/4
f 229/4/4 226/4/4 230/4/4
f 231/3/4 232/3/4 235/3/4
f 235/3/4 232/3/4 236/3/4
f 233/3/4 234/3/4 237/3/4
f 237/3/4 234/3/4 238/3/4
f 239/4/4 240/4/4 241/4/4
f 241/4/4 240/4/4 242/4/4
f 243/4/4 244/4/4 247/4/4
f 247/4/4 244/4/4 248/4/4
f 245/4/4 246/4/4 249/4/4
f 249/4/4 246/4/4 250/4/4
f 247/3/4 248/3/4 251/3/4
f 251/3/4 248/3/4 252/3/4
f 249/3/4 250/3/4 253/3/4
f 253/3/4 250/3/4 254/3/4
f 255/3/4 256/3/4 257/3/4
f 257/3/4 256/3/4 258/3/4
f 259/4/4 260/4/4 261/4/4
f 261/4/4 260/4/4 262/4/4
f 263/3/4 264/3/4 265/3/4
f 265/3/4 264/3/4 266/3/4
f 267/4/4 268/4/4 269/4/4
f 269/4/4 268/4/4 270/4/4
f 269/3/4 270/3/4 271/3/4
f 271/3/4 270/3/4 272/3/4
f 275/1/5 274/1/5 273/1/5
f 276/1/5 274/1/5 275/1/5
f 281/1/5 278/1/5 277/1/5
f 282/1/5 278/1/5 281/1/5
f 283/1/5 280/1/5 279/1/5
f 284/1/5 280/1/5 283/1/5
f 287/1/5 286/1/5 285/1/5
f 288/1/5 286/1/5 287/1/5
f 293/1/5 290/1/5 289/1/5
f 294/1/5 290/1/5 293/1/5
f 298/1/5 292/1/5 291/1/5
f 299/1/5 292/1/5 298/1/5
f 300/4/5 296/4/5 295/4/5
f 301/4/5 296/4/5 300/4/5
f 302/3/5 297/3/5 296/3/5
f 303/3/5 297/3/5 302/3/5
f 304/4/5 296/4/5 301/4/5
f 305/3/5 302/3/5 296/3/5
f 305/4/5 296/4/5 304/4/5
f 306/3/5 302/3/5 305/3/5
f 311/1/5 308/1/5 307/1/5
f 312/1/5 308/1/5 311/1/5
f 313/1/5 310/1/5 309/1/5
f 314/1/5 310/1/5 313/1/5
f 315/2/5 313/2/5 312/2/5
f 316/2/5 313/2/5 315/2/5
f 321/4/5 318/4/5 317/4/5
f 322/4/5 318/4/5 321/4/5
f 323/3/5 320/3/5 319/3/5
f 324/3/5 320/3/5 323/3/5
f 325/4/5 318/4/5 322/4/5
f 328/3/5 323/3/5 319/3/5
f 329/4/5 326/4/5 325/4/5
f 329/4/5 325/4/5 322/4/5
f 330/4/5 326/4/5 329/4/5
f 331/4/5 326/4/5 330/4/5
f 333/3/5 328/3/5 327/3/5
f 334/3/5 323/3/5 328/3/5
f 334/3/5 328/3/5 333/3/5
f 335/3/5 323/3/5 334/3/5
f 336/4/5 332/4/5 331/4/5
f 336/4/5 331/4/5 330/4/5
f 337/4/5 332/4/5 336/4/5
f 338/3/5 333/3/5 332/3/5
f 338/3/5 334/3/5 333/3/5
f 339/3/5 334/3/5 338/3/5
f 340/4/5 332/4/5 337/4/5
f 341/3/5 338/3/5 332/3/5
f 341/4/5 332/4/5 340/4/5
f 342/3/5 338/3/5 341/3/5
f 343/1/6 344/1/6 347/1/6
f 347/1/6 344/1/6 348/1/6
f 345/1/6 346/1/6 349/1/6
f 349/1/6 346/1/6 350/1/6
f 348/2/6 349/2/6 351/2/6
f 351/2/6 349/2/6 352/2/6
f 353/4/6 354/4/6 357/4/6
f 357/4/6 354/4/6 358/4/6
f 355/3/6 356/3/6 359/3/6
f 359/3/6 356/3/6 360/3/6
f 358/4/6 354/4/6 361/4/6
f 355/3/6 359/3/6 364/3/6
f 361/4/6 362/4/6 365/4/6
f 358/4/6 361/4/6 365/4/6
f 365/4/6 362/4/6 366/4/6
f 366/4/6 362/4/6 367/4/6
f 363/3/6 364/3/6 369/3/6
f 364/3/6 359/3/6 370/3/6
f 369/3/6 364/3/6 370/3/6
f 370/3/6 359/3/6 371/3/6
f 367/4/6 368/4/6 372/4/6
f 366/4/6 367/4/6 372/4/6
f 372/4/6 368/4/6 373/4/6
f 368/3/6 369/3/6 374/3/6
f 369/3/6 370/3/6 374/3/6
f 374/3/6 370/3/6 375/3/6
f 373/4/6 368/4/6 376/4/6
f 368/3/6 374/3/6 377/3/6
f 376/4/6 368/4/6 377/4/6
f 377/3/6 374/3/6 378/3/6
f 379/1/6 380/1/6 381/1/6
f 381/1/6 380/1/6 382/1/6
f 383/1/6 384/1/6 387/1/6
f 387/1/6 384/1/6 388/1/6
f 385/1/6 386/1/6 392/1/6
f 392/1/6 386/1/6 393/1/6
f 389/4/6 390/4/6 394/4/6
f 394/4/6 390/4/6 395/4/6
f 390/3/6 391/3/6 396/3/6
f 396/3/6 391/3/6 397/3/6
f 395/4/6 390/4/6 398/4/6
f 390/3/6 396/3/6 399/3/6
f 398/4/6 390/4/6 399/4/6
f 399/3/6 396/3/6 400/3/6
f 401/1/6 402/1/6 405/1/6
f 405/1/6 402/1/6 406/1/6
f 403/1/6 404/1/6 407/1/6
f 407/1/6 404/1/6 408/1/6
f 409/1/6 410/1/6 411/1/6
f 411/1/6 410/1/6 412/1/6
